<svg width="17" height="24" viewBox="0 0 17 24" fill="none" xmlns="http://www.w3.org/2000/svg">
<g clip-path="url(#clip0_9_31)">
<path d="M14.8275 10.741C14.8376 10.8831 14.8376 11.0253 14.8376 11.1674C14.8376 15.5024 11.5382 20.4973 5.5077 20.4973C3.64982 20.4973 1.92395 19.9593 0.472168 19.0253C0.736137 19.0557 0.989918 19.0659 1.26404 19.0659C2.79701 19.0659 4.2082 18.5481 5.33511 17.6649C3.89348 17.6344 2.68536 16.6903 2.26911 15.3908C2.47217 15.4212 2.6752 15.4415 2.88842 15.4415C3.18282 15.4415 3.47726 15.4009 3.75136 15.3298C2.24882 15.0253 1.12189 13.7055 1.12189 12.1116V12.071C1.55842 12.3146 2.06607 12.4669 2.60411 12.4872C1.72086 11.8983 1.1422 10.8933 1.1422 9.75622C1.1422 9.1471 1.30461 8.58872 1.58889 8.10141C3.20311 10.0913 5.62951 11.3907 8.35029 11.5329C8.29954 11.2892 8.26907 11.0354 8.26907 10.7816C8.26907 8.9745 9.73101 7.50244 11.5483 7.50244C12.4924 7.50244 13.3452 7.89838 13.9442 8.53797C14.6853 8.39585 15.3959 8.12172 16.0254 7.7461C15.7817 8.50754 15.264 9.14713 14.5838 9.55319C15.2437 9.48216 15.8833 9.29938 16.4721 9.0456C16.0255 9.69532 15.4671 10.274 14.8275 10.741Z" fill="#9CA3AF"/>
</g>
<defs>
<clipPath id="clip0_9_31">
<rect width="16" height="16" fill="white" transform="translate(0.472168 6)"/>
</clipPath>
</defs>
</svg>
