<svg width="17" height="24" viewBox="0 0 17 24" fill="none" xmlns="http://www.w3.org/2000/svg">
<path d="M8.71104 10.4063C6.72354 10.4063 5.12041 12.0095 5.12041 13.997C5.12041 15.9845 6.72354 17.5876 8.71104 17.5876C10.6985 17.5876 12.3017 15.9845 12.3017 13.997C12.3017 12.0095 10.6985 10.4063 8.71104 10.4063ZM8.71104 16.3313C7.42666 16.3313 6.37666 15.2845 6.37666 13.997C6.37666 12.7095 7.42354 11.6626 8.71104 11.6626C9.99854 11.6626 11.0454 12.7095 11.0454 13.997C11.0454 15.2845 9.99541 16.3313 8.71104 16.3313ZM13.286 10.2595C13.286 10.7251 12.911 11.097 12.4485 11.097C11.9829 11.097 11.611 10.722 11.611 10.2595C11.611 9.79697 11.986 9.42197 12.4485 9.42197C12.911 9.42197 13.286 9.79697 13.286 10.2595ZM15.6642 11.1095C15.611 9.9876 15.3548 8.99385 14.5329 8.1751C13.7142 7.35635 12.7204 7.1001 11.5985 7.04385C10.4423 6.97822 6.97666 6.97822 5.82041 7.04385C4.70166 7.09697 3.70791 7.35322 2.88604 8.17197C2.06416 8.99072 1.81104 9.98447 1.75479 11.1063C1.68916 12.2626 1.68916 15.7282 1.75479 16.8845C1.80791 18.0063 2.06416 19.0001 2.88604 19.8188C3.70791 20.6376 4.69854 20.8938 5.82041 20.9501C6.97666 21.0157 10.4423 21.0157 11.5985 20.9501C12.7204 20.897 13.7142 20.6407 14.5329 19.8188C15.3517 19.0001 15.6079 18.0063 15.6642 16.8845C15.7298 15.7282 15.7298 12.2657 15.6642 11.1095ZM14.1704 18.1251C13.9267 18.7376 13.4548 19.2095 12.8392 19.4563C11.9173 19.822 9.72978 19.7376 8.71104 19.7376C7.69229 19.7376 5.50166 19.8188 4.58291 19.4563C3.97041 19.2126 3.49854 18.7407 3.25166 18.1251C2.88604 17.2032 2.97041 15.0157 2.97041 13.997C2.97041 12.9782 2.88916 10.7876 3.25166 9.86885C3.49541 9.25635 3.96729 8.78447 4.58291 8.5376C5.50479 8.17197 7.69229 8.25635 8.71104 8.25635C9.72978 8.25635 11.9204 8.1751 12.8392 8.5376C13.4517 8.78135 13.9235 9.25322 14.1704 9.86885C14.536 10.7907 14.4517 12.9782 14.4517 13.997C14.4517 15.0157 14.536 17.2063 14.1704 18.1251Z" fill="#9CA3AF"/>
</svg>
