<svg width="321" height="213" viewBox="0 0 321 213" fill="none" xmlns="http://www.w3.org/2000/svg">
<g clip-path="url(#clip0_9_58)">
<path d="M320.056 0H0.0561523V213H320.056V0Z" fill="#DDDDDD"/>
<path d="M67.9816 100.174L65.2083 99.684C65.4216 98.2072 65.834 96.9115 66.4456 95.7968C67.0571 94.6821 67.8216 93.752 68.7389 93.0065C69.6563 92.261 70.7087 91.7001 71.8963 91.3238C73.0838 90.9475 74.3603 90.7593 75.7256 90.7593C77.1478 90.7593 78.4314 90.9617 79.5763 91.3664C80.7211 91.7711 81.6989 92.332 82.5096 93.0491C83.3203 93.7662 83.9425 94.6075 84.3763 95.5731C84.81 96.5387 85.0269 97.5824 85.0269 98.7042C85.0269 99.684 84.9167 100.547 84.6963 101.292C84.4758 102.038 84.1594 102.687 83.7469 103.241C83.3345 103.795 82.8225 104.264 82.2109 104.647C81.5994 105.03 80.9096 105.35 80.1416 105.605C81.9905 106.188 83.37 107.075 84.2803 108.268C85.1905 109.461 85.6456 110.959 85.6456 112.762C85.6456 114.296 85.3611 115.652 84.7923 116.831C84.2234 118.009 83.4554 119 82.4883 119.802C81.5211 120.604 80.4011 121.211 79.1283 121.623C77.8554 122.035 76.5078 122.241 75.0856 122.241C73.5354 122.241 72.1843 122.063 71.0323 121.708C69.8803 121.353 68.8776 120.828 68.0243 120.132C67.1709 119.436 66.4456 118.584 65.8483 117.576C65.2509 116.568 64.7389 115.403 64.3123 114.083L66.6376 113.124C67.2491 112.869 67.8216 112.801 68.3549 112.922C68.8883 113.043 69.2758 113.33 69.5176 113.785C69.7736 114.282 70.0545 114.772 70.3603 115.254C70.666 115.737 71.0323 116.167 71.4589 116.543C71.8856 116.919 72.3869 117.225 72.9629 117.459C73.5389 117.693 74.2251 117.81 75.0216 117.81C75.9176 117.81 76.6998 117.665 77.3683 117.374C78.0367 117.083 78.5949 116.703 79.0429 116.234C79.4909 115.766 79.8251 115.244 80.0456 114.669C80.266 114.093 80.3763 113.515 80.3763 112.933C80.3763 112.194 80.298 111.523 80.1416 110.92C79.9851 110.316 79.658 109.802 79.1603 109.376C78.6625 108.95 77.9478 108.616 77.0163 108.374C76.0847 108.133 74.8367 108.012 73.2723 108.012V104.264C74.5665 104.249 75.6403 104.129 76.4936 103.901C77.3469 103.674 78.026 103.358 78.5309 102.954C79.0358 102.549 79.3878 102.063 79.5869 101.495C79.786 100.927 79.8856 100.302 79.8856 99.6201C79.8856 98.1717 79.4803 97.0712 78.6696 96.3186C77.8589 95.566 76.778 95.1897 75.4269 95.1897C74.8011 95.1897 74.2251 95.2785 73.6989 95.456C73.1727 95.6335 72.6998 95.882 72.2803 96.2015C71.8607 96.521 71.5087 96.8937 71.2243 97.3197C70.9398 97.7457 70.7265 98.2143 70.5843 98.7255C70.3425 99.3787 70.026 99.8118 69.6349 100.025C69.2438 100.238 68.6927 100.288 67.9816 100.174ZM111.331 106.5C111.331 109.184 111.043 111.516 110.467 113.497C109.891 115.478 109.094 117.115 108.078 118.407C107.061 119.699 105.859 120.661 104.472 121.293C103.086 121.925 101.589 122.241 99.9816 122.241C98.3745 122.241 96.8847 121.925 95.5123 121.293C94.1398 120.661 92.9487 119.699 91.9389 118.407C90.9291 117.115 90.1398 115.478 89.5709 113.497C89.002 111.516 88.7176 109.184 88.7176 106.5C88.7176 103.802 89.002 101.466 89.5709 99.4923C90.1398 97.5185 90.9291 95.8855 91.9389 94.5933C92.9487 93.3011 94.1398 92.3391 95.5123 91.7072C96.8847 91.0753 98.3745 90.7593 99.9816 90.7593C101.589 90.7593 103.086 91.0753 104.472 91.7072C105.859 92.3391 107.061 93.3011 108.078 94.5933C109.094 95.8855 109.891 97.5185 110.467 99.4923C111.043 101.466 111.331 103.802 111.331 106.5ZM105.891 106.5C105.891 104.271 105.727 102.425 105.4 100.962C105.073 99.4994 104.636 98.335 104.088 97.4688C103.541 96.6026 102.911 95.9956 102.2 95.6477C101.489 95.2998 100.75 95.1258 99.9816 95.1258C99.2278 95.1258 98.4989 95.2998 97.7949 95.6477C97.0909 95.9956 96.4687 96.6026 95.9283 97.4688C95.3878 98.335 94.9576 99.4994 94.6376 100.962C94.3176 102.425 94.1576 104.271 94.1576 106.5C94.1576 108.729 94.3176 110.575 94.6376 112.038C94.9576 113.501 95.3878 114.665 95.9283 115.531C96.4687 116.397 97.0909 117.004 97.7949 117.352C98.4989 117.7 99.2278 117.874 99.9816 117.874C100.75 117.874 101.489 117.7 102.2 117.352C102.911 117.004 103.541 116.397 104.088 115.531C104.636 114.665 105.073 113.501 105.4 112.038C105.727 110.575 105.891 108.729 105.891 106.5ZM136.078 106.5C136.078 109.184 135.79 111.516 135.214 113.497C134.638 115.478 133.841 117.115 132.824 118.407C131.807 119.699 130.606 120.661 129.219 121.293C127.832 121.925 126.335 122.241 124.728 122.241C123.121 122.241 121.631 121.925 120.259 121.293C118.886 120.661 117.695 119.699 116.686 118.407C115.676 117.115 114.886 115.478 114.318 113.497C113.749 111.516 113.464 109.184 113.464 106.5C113.464 103.802 113.749 101.466 114.318 99.4923C114.886 97.5185 115.676 95.8855 116.686 94.5933C117.695 93.3011 118.886 92.3391 120.259 91.7072C121.631 91.0753 123.121 90.7593 124.728 90.7593C126.335 90.7593 127.832 91.0753 129.219 91.7072C130.606 92.3391 131.807 93.3011 132.824 94.5933C133.841 95.8855 134.638 97.5185 135.214 99.4923C135.79 101.466 136.078 103.802 136.078 106.5ZM130.638 106.5C130.638 104.271 130.474 102.425 130.147 100.962C129.82 99.4994 129.382 98.335 128.835 97.4688C128.287 96.6026 127.658 95.9956 126.947 95.6477C126.236 95.2998 125.496 95.1258 124.728 95.1258C123.974 95.1258 123.246 95.2998 122.542 95.6477C121.838 95.9956 121.215 96.6026 120.675 97.4688C120.134 98.335 119.704 99.4994 119.384 100.962C119.064 102.425 118.904 104.271 118.904 106.5C118.904 108.729 119.064 110.575 119.384 112.038C119.704 113.501 120.134 114.665 120.675 115.531C121.215 116.397 121.838 117.004 122.542 117.352C123.246 117.7 123.974 117.874 124.728 117.874C125.496 117.874 126.236 117.7 126.947 117.352C127.658 117.004 128.287 116.397 128.835 115.531C129.382 114.665 129.82 113.501 130.147 112.038C130.474 110.575 130.638 108.729 130.638 106.5ZM169.955 114.85L167.16 117.597L159.928 110.377L152.632 117.64L149.838 114.892L157.134 107.586L150.179 100.643L152.952 97.8735L159.907 104.817L166.819 97.9161L169.635 100.685L162.702 107.608L169.955 114.85ZM195.64 117.001H203.555C204.124 117.001 204.575 117.161 204.91 117.48C205.244 117.8 205.411 118.222 205.411 118.748V121.9H184.248V120.153C184.248 119.798 184.323 119.426 184.472 119.035C184.622 118.645 184.86 118.293 185.187 117.981L194.552 108.609C195.334 107.814 196.035 107.054 196.654 106.33C197.272 105.605 197.788 104.888 198.2 104.178C198.613 103.468 198.929 102.748 199.15 102.016C199.37 101.285 199.48 100.515 199.48 99.7053C199.48 98.9669 199.374 98.3173 199.16 97.7564C198.947 97.1955 198.645 96.7233 198.254 96.3399C197.862 95.9565 197.393 95.669 196.846 95.4773C196.298 95.2856 195.683 95.1897 195 95.1897C194.374 95.1897 193.795 95.2785 193.262 95.456C192.728 95.6335 192.255 95.882 191.843 96.2015C191.43 96.521 191.082 96.8937 190.798 97.3197C190.513 97.7457 190.3 98.2143 190.158 98.7255C189.916 99.3787 189.603 99.8118 189.219 100.025C188.835 100.238 188.28 100.288 187.555 100.174L184.782 99.684C184.995 98.2072 185.407 96.9115 186.019 95.7968C186.63 94.6821 187.395 93.752 188.312 93.0065C189.23 92.261 190.282 91.7001 191.47 91.3238C192.657 90.9475 193.934 90.7593 195.299 90.7593C196.721 90.7593 198.022 90.9688 199.203 91.3877C200.383 91.8066 201.393 92.3994 202.232 93.1662C203.071 93.933 203.726 94.856 204.195 95.9352C204.664 97.0144 204.899 98.2143 204.899 99.5349C204.899 100.671 204.732 101.722 204.398 102.687C204.063 103.653 203.615 104.576 203.054 105.456C202.492 106.337 201.834 107.189 201.08 108.012C200.326 108.836 199.537 109.674 198.712 110.526L191.758 117.619C192.426 117.42 193.091 117.267 193.752 117.161C194.414 117.054 195.043 117.001 195.64 117.001ZM231.054 106.5C231.054 109.184 230.766 111.516 230.19 113.497C229.614 115.478 228.817 117.115 227.8 118.407C226.783 119.699 225.582 120.661 224.195 121.293C222.808 121.925 221.311 122.241 219.704 122.241C218.097 122.241 216.607 121.925 215.235 121.293C213.862 120.661 212.671 119.699 211.662 118.407C210.652 117.115 209.862 115.478 209.294 113.497C208.725 111.516 208.44 109.184 208.44 106.5C208.44 103.802 208.725 101.466 209.294 99.4923C209.862 97.5185 210.652 95.8855 211.662 94.5933C212.671 93.3011 213.862 92.3391 215.235 91.7072C216.607 91.0753 218.097 90.7593 219.704 90.7593C221.311 90.7593 222.808 91.0753 224.195 91.7072C225.582 92.3391 226.783 93.3011 227.8 94.5933C228.817 95.8855 229.614 97.5185 230.19 99.4923C230.766 101.466 231.054 103.802 231.054 106.5ZM225.614 106.5C225.614 104.271 225.45 102.425 225.123 100.962C224.796 99.4994 224.358 98.335 223.811 97.4688C223.263 96.6026 222.634 95.9956 221.923 95.6477C221.212 95.2998 220.472 95.1258 219.704 95.1258C218.95 95.1258 218.222 95.2998 217.518 95.6477C216.814 95.9956 216.191 96.6026 215.651 97.4688C215.11 98.335 214.68 99.4994 214.36 100.962C214.04 102.425 213.88 104.271 213.88 106.5C213.88 108.729 214.04 110.575 214.36 112.038C214.68 113.501 215.11 114.665 215.651 115.531C216.191 116.397 216.814 117.004 217.518 117.352C218.222 117.7 218.95 117.874 219.704 117.874C220.472 117.874 221.212 117.7 221.923 117.352C222.634 117.004 223.263 116.397 223.811 115.531C224.358 114.665 224.796 113.501 225.123 112.038C225.45 110.575 225.614 108.729 225.614 106.5ZM255.8 106.5C255.8 109.184 255.512 111.516 254.936 113.497C254.36 115.478 253.564 117.115 252.547 118.407C251.53 119.699 250.328 120.661 248.942 121.293C247.555 121.925 246.058 122.241 244.451 122.241C242.844 122.241 241.354 121.925 239.982 121.293C238.609 120.661 237.418 119.699 236.408 118.407C235.398 117.115 234.609 115.478 234.04 113.497C233.471 111.516 233.187 109.184 233.187 106.5C233.187 103.802 233.471 101.466 234.04 99.4923C234.609 97.5185 235.398 95.8855 236.408 94.5933C237.418 93.3011 238.609 92.3391 239.982 91.7072C241.354 91.0753 242.844 90.7593 244.451 90.7593C246.058 90.7593 247.555 91.0753 248.942 91.7072C250.328 92.3391 251.53 93.3011 252.547 94.5933C253.564 95.8855 254.36 97.5185 254.936 99.4923C255.512 101.466 255.8 103.802 255.8 106.5ZM250.36 106.5C250.36 104.271 250.197 102.425 249.87 100.962C249.542 99.4994 249.105 98.335 248.558 97.4688C248.01 96.6026 247.381 95.9956 246.67 95.6477C245.958 95.2998 245.219 95.1258 244.451 95.1258C243.697 95.1258 242.968 95.2998 242.264 95.6477C241.56 95.9956 240.938 96.6026 240.398 97.4688C239.857 98.335 239.427 99.4994 239.107 100.962C238.787 102.425 238.627 104.271 238.627 106.5C238.627 108.729 238.787 110.575 239.107 112.038C239.427 113.501 239.857 114.665 240.398 115.531C240.938 116.397 241.56 117.004 242.264 117.352C242.968 117.7 243.697 117.874 244.451 117.874C245.219 117.874 245.958 117.7 246.67 117.352C247.381 117.004 248.01 116.397 248.558 115.531C249.105 114.665 249.542 113.501 249.87 112.038C250.197 110.575 250.36 108.729 250.36 106.5Z" fill="#999999"/>
</g>
<defs>
<clipPath id="clip0_9_58">
<rect width="320" height="213" fill="white" transform="translate(0.0561523)"/>
</clipPath>
</defs>
</svg>
